HIERARCHY
ROOT newVegas:Hips
{
	OFFSET 0.000000 96.479958 0.000000
	CHANNELS 6 Xposition Yposition Zposition Xrotation Yrotation Zrotation
	JOINT newVegas:Pelvis
	{
		OFFSET 0.000000 0.000000 0.000000
		CHANNELS 3 Xrotation Yrotation Zrotation
		JOINT newVegas:LeftUpLeg
		{
			OFFSET 18.735201 -5.666702 -4.541200
			CHANNELS 3 Xrotation Yrotation Zrotation
			JOINT newVegas:LeftLeg
			{
				OFFSET -0.021200 -31.938179 0.493100
				CHANNELS 3 Xrotation Yrotation Zrotation
				JOINT newVegas:LeftFoot
				{
					OFFSET 0.021200 -31.938179 -4.336299
					CHANNELS 3 Xrotation Yrotation Zrotation
					JOINT newVegas:LeftToeBase
					{
						OFFSET 0.943001 -26.722000 15.023500
						CHANNELS 3 Xrotation Yrotation Zrotation
						End Site
						{
							OFFSET 0.000000 30.670183 0.000000
						}
					}
				}
				JOINT newVegas:Left_PantLeg
				{
					OFFSET 0.663870 -9.044666 -1.108900
					CHANNELS 3 Xrotation Yrotation Zrotation
					End Site
					{
						OFFSET 1.415995 20.635357 0.000000
					}
				}
			}
		}
		JOINT newVegas:RightUpLeg
		{
			OFFSET -18.735201 -5.666702 -4.541200
			CHANNELS 3 Xrotation Yrotation Zrotation
			JOINT newVegas:RightLeg
			{
				OFFSET 0.018946 -31.938133 0.493100
				CHANNELS 3 Xrotation Yrotation Zrotation
				JOINT newVegas:RightFoot
				{
					OFFSET -0.018946 -31.938126 -4.336299
					CHANNELS 3 Xrotation Yrotation Zrotation
					JOINT newVegas:RightToeBase
					{
						OFFSET -0.943001 -26.722004 15.023500
						CHANNELS 3 Xrotation Yrotation Zrotation
						End Site
						{
							OFFSET 0.000000 30.670187 0.000000
						}
					}
				}
				JOINT newVegas:Right_PantLeg
				{
					OFFSET -0.661674 -9.044716 -1.108900
					CHANNELS 3 Xrotation Yrotation Zrotation
					End Site
					{
						OFFSET -1.415958 20.635269 0.000000
					}
				}
			}
		}
	}
	JOINT newVegas:Spine
	{
		OFFSET 0.000000 10.199997 -0.299500
		CHANNELS 3 Xrotation Yrotation Zrotation
		JOINT newVegas:Spine1
		{
			OFFSET 0.000000 11.900002 -1.516600
			CHANNELS 3 Xrotation Yrotation Zrotation
			JOINT newVegas:Spine2
			{
				OFFSET 0.000000 13.600006 -2.842500
				CHANNELS 3 Xrotation Yrotation Zrotation
				JOINT newVegas:Neck
				{
					OFFSET 0.000000 9.624100 -2.890100
					CHANNELS 3 Xrotation Yrotation Zrotation
					JOINT newVegas:Head
					{
						OFFSET 0.000000 14.068802 -1.351900
						CHANNELS 3 Xrotation Yrotation Zrotation
						JOINT newVegas:Hair_Back
						{
							OFFSET 0.000000 3.231903 -17.524799
							CHANNELS 3 Xrotation Yrotation Zrotation
							End Site
							{
								OFFSET 0.000000 19.849884 0.000000
							}
						}
						JOINT newVegas:Hair_Front
						{
							OFFSET 0.000000 31.260406 4.573800
							CHANNELS 3 Xrotation Yrotation Zrotation
							JOINT newVegas:Hair_Front1
							{
								OFFSET 0.000000 2.284103 11.993300
								CHANNELS 3 Xrotation Yrotation Zrotation
								JOINT newVegas:Hair_Front2
								{
									OFFSET 0.000000 2.284103 11.993300
									CHANNELS 3 Xrotation Yrotation Zrotation
									End Site
									{
										OFFSET 0.000000 12.208862 0.000000
									}
								}
							}
						}
						JOINT newVegas:Jowel
						{
							OFFSET 0.000000 -7.458206 6.864100
							CHANNELS 3 Xrotation Yrotation Zrotation
							End Site
							{
								OFFSET 0.000000 19.849884 0.000000
							}
						}
					}
				}
				JOINT newVegas:LeftShoulder
				{
					OFFSET 15.263000 10.923401 -0.547700
					CHANNELS 3 Xrotation Yrotation Zrotation
					JOINT newVegas:LeftArm
					{
						OFFSET 25.438599 -2.830597 -13.032500
						CHANNELS 3 Xrotation Yrotation Zrotation
						JOINT newVegas:LeftForeArm
						{
							OFFSET 29.960503 0.000000 0.000000
							CHANNELS 3 Xrotation Yrotation Zrotation
							JOINT newVegas:LeftHand
							{
								OFFSET 27.849251 0.000000 0.000000
								CHANNELS 3 Xrotation Yrotation Zrotation
								JOINT newVegas:LeftHandThumb1
								{
									OFFSET 4.487587 -3.305161 6.305391
									CHANNELS 3 Xrotation Yrotation Zrotation
									JOINT newVegas:LeftHandThumb2
									{
										OFFSET 5.480453 -3.164139 3.164143
										CHANNELS 3 Xrotation Yrotation Zrotation
										JOINT newVegas:LeftHandThumb3
										{
											OFFSET 5.159721 -2.978973 2.978967
											CHANNELS 3 Xrotation Yrotation Zrotation
											End Site
											{
												OFFSET 2.494507 5.926697 1.738678
											}
										}
									}
								}
								JOINT newVegas:LeftHandIndex1
								{
									OFFSET 18.578728 -0.527832 5.208049
									CHANNELS 3 Xrotation Yrotation Zrotation
									JOINT newVegas:LeftHandIndex2
									{
										OFFSET 3.192009 0.000000 0.000000
										CHANNELS 3 Xrotation Yrotation Zrotation
										JOINT newVegas:LeftHandIndex3
										{
											OFFSET 3.835129 0.000000 0.000000
											CHANNELS 3 Xrotation Yrotation Zrotation
											End Site
											{
												OFFSET -0.034599 3.816971 0.371180
											}
										}
									}
								}
								JOINT newVegas:LeftHandMiddle1
								{
									OFFSET 18.476105 0.000000 0.000000
									CHANNELS 3 Xrotation Yrotation Zrotation
									JOINT newVegas:LeftHandMiddle2
									{
										OFFSET 3.324875 0.000000 0.000000
										CHANNELS 3 Xrotation Yrotation Zrotation
										JOINT newVegas:LeftHandMiddle3
										{
											OFFSET 4.596550 0.000000 0.000000
											CHANNELS 3 Xrotation Yrotation Zrotation
											End Site
											{
												OFFSET 0.057701 4.578827 0.399218
											}
										}
									}
								}
								JOINT newVegas:LeftHandRing1
								{
									OFFSET 17.732719 0.121887 -4.201567
									CHANNELS 3 Xrotation Yrotation Zrotation
									JOINT newVegas:LeftHandRing2
									{
										OFFSET 2.733170 0.000000 0.000000
										CHANNELS 3 Xrotation Yrotation Zrotation
										JOINT newVegas:LeftHandRing3
										{
											OFFSET 3.178268 0.000000 0.000000
											CHANNELS 3 Xrotation Yrotation Zrotation
											End Site
											{
												OFFSET 0.119102 3.170624 0.185394
											}
										}
									}
								}
								JOINT newVegas:LeftHandPinky1
								{
									OFFSET 15.989624 -0.606689 -7.535461
									CHANNELS 3 Xrotation Yrotation Zrotation
									JOINT newVegas:LeftHandPinky2
									{
										OFFSET 2.538986 0.000000 0.000000
										CHANNELS 3 Xrotation Yrotation Zrotation
										JOINT newVegas:LeftHandPinky3
										{
											OFFSET 2.593102 0.000000 0.000000
											CHANNELS 3 Xrotation Yrotation Zrotation
											End Site
											{
												OFFSET -0.150902 2.584198 0.152708
											}
										}
									}
								}
							}
							JOINT newVegas:Left_Sleeve
							{
								OFFSET 0.267448 -0.649796 0.577675
								CHANNELS 3 Xrotation Yrotation Zrotation
								End Site
								{
									OFFSET 0.000000 15.991241 0.000000
								}
							}
							JOINT newVegas:Left_CapeC
							{
								OFFSET 15.715958 -8.608795 -6.935905
								CHANNELS 3 Xrotation Yrotation Zrotation
								JOINT newVegas:Left_CapeC1
								{
									OFFSET 0.000000 -8.688499 0.000000
									CHANNELS 3 Xrotation Yrotation Zrotation
									End Site
									{
										OFFSET 0.000000 8.688499 0.000000
									}
								}
							}
						}
						JOINT newVegas:Left_CapeB
						{
							OFFSET 26.118385 -8.608795 -7.079235
							CHANNELS 3 Xrotation Yrotation Zrotation
							JOINT newVegas:Left_CapeB1
							{
								OFFSET 0.000000 -8.688499 0.000000
								CHANNELS 3 Xrotation Yrotation Zrotation
								End Site
								{
									OFFSET 0.000000 8.688499 0.000000
								}
							}
						}
						JOINT newVegas:Left_CapeA
						{
							OFFSET 5.115639 -8.608795 -10.395809
							CHANNELS 3 Xrotation Yrotation Zrotation
							JOINT newVegas:Left_CapeA1
							{
								OFFSET 0.000000 -8.688499 0.000000
								CHANNELS 3 Xrotation Yrotation Zrotation
								End Site
								{
									OFFSET 0.000000 8.688499 0.000000
								}
							}
						}
					}
				}
				JOINT newVegas:RightShoulder
				{
					OFFSET -15.263000 10.923401 -0.547700
					CHANNELS 3 Xrotation Yrotation Zrotation
					JOINT newVegas:RightArm
					{
						OFFSET -25.438599 -2.830597 -13.032500
						CHANNELS 3 Xrotation Yrotation Zrotation
						JOINT newVegas:RightForeArm
						{
							OFFSET -29.960503 0.000000 0.000000
							CHANNELS 3 Xrotation Yrotation Zrotation
							JOINT newVegas:RightHand
							{
								OFFSET -27.849251 0.000000 0.000000
								CHANNELS 3 Xrotation Yrotation Zrotation
								JOINT newVegas:RightHandThumb1
								{
									OFFSET -4.487587 -3.305161 6.305391
									CHANNELS 3 Xrotation Yrotation Zrotation
									JOINT newVegas:RightHandThumb2
									{
										OFFSET -5.480453 -3.164139 3.164143
										CHANNELS 3 Xrotation Yrotation Zrotation
										JOINT newVegas:RightHandThumb3
										{
											OFFSET -5.159721 -2.978973 2.978967
											CHANNELS 3 Xrotation Yrotation Zrotation
											End Site
											{
												OFFSET -2.494507 5.926697 1.738678
											}
										}
									}
								}
								JOINT newVegas:RightHandIndex1
								{
									OFFSET -18.578728 -0.527832 5.208049
									CHANNELS 3 Xrotation Yrotation Zrotation
									JOINT newVegas:RightHandIndex2
									{
										OFFSET -3.192009 0.000000 0.000000
										CHANNELS 3 Xrotation Yrotation Zrotation
										JOINT newVegas:RightHandIndex3
										{
											OFFSET -3.835129 0.000000 0.000000
											CHANNELS 3 Xrotation Yrotation Zrotation
											End Site
											{
												OFFSET 0.034599 3.816971 0.371180
											}
										}
									}
								}
								JOINT newVegas:RightHandMiddle1
								{
									OFFSET -18.476105 0.000000 0.000000
									CHANNELS 3 Xrotation Yrotation Zrotation
									JOINT newVegas:RightHandMiddle2
									{
										OFFSET -3.324875 0.000000 0.000000
										CHANNELS 3 Xrotation Yrotation Zrotation
										JOINT newVegas:RightHandMiddle3
										{
											OFFSET -4.596550 0.000000 0.000000
											CHANNELS 3 Xrotation Yrotation Zrotation
											End Site
											{
												OFFSET -0.057701 4.578827 0.399218
											}
										}
									}
								}
								JOINT newVegas:RightHandRing1
								{
									OFFSET -17.732719 0.121887 -4.201567
									CHANNELS 3 Xrotation Yrotation Zrotation
									JOINT newVegas:RightHandRing2
									{
										OFFSET -2.733170 0.000000 0.000000
										CHANNELS 3 Xrotation Yrotation Zrotation
										JOINT newVegas:RightHandRing3
										{
											OFFSET -3.178268 0.000000 0.000000
											CHANNELS 3 Xrotation Yrotation Zrotation
											End Site
											{
												OFFSET -0.119102 3.170624 0.185394
											}
										}
									}
								}
								JOINT newVegas:RightHandPinky1
								{
									OFFSET -15.989624 -0.606689 -7.535461
									CHANNELS 3 Xrotation Yrotation Zrotation
									JOINT newVegas:RightHandPinky2
									{
										OFFSET -2.538986 0.000000 0.000000
										CHANNELS 3 Xrotation Yrotation Zrotation
										JOINT newVegas:RightHandPinky3
										{
											OFFSET -2.593102 0.000000 0.000000
											CHANNELS 3 Xrotation Yrotation Zrotation
											End Site
											{
												OFFSET 0.150902 2.584198 0.152708
											}
										}
									}
								}
							}
							JOINT newVegas:Right_CapeC
							{
								OFFSET -15.715958 -8.608795 -6.935905
								CHANNELS 3 Xrotation Yrotation Zrotation
								JOINT newVegas:Right_CapeC1
								{
									OFFSET 0.000000 -8.688499 0.000000
									CHANNELS 3 Xrotation Yrotation Zrotation
									End Site
									{
										OFFSET 0.000000 8.688499 0.000000
									}
								}
							}
							JOINT newVegas:Right_Sleeve
							{
								OFFSET -0.267448 -0.649994 0.577675
								CHANNELS 3 Xrotation Yrotation Zrotation
								End Site
								{
									OFFSET 0.000000 15.991302 0.000000
								}
							}
						}
						JOINT newVegas:Right_CapeA
						{
							OFFSET -5.115540 -8.608795 -10.395824
							CHANNELS 3 Xrotation Yrotation Zrotation
							JOINT newVegas:Right_CapeA1
							{
								OFFSET 0.000000 -8.688499 0.000000
								CHANNELS 3 Xrotation Yrotation Zrotation
								End Site
								{
									OFFSET 0.000000 8.688499 0.000000
								}
							}
						}
						JOINT newVegas:Right_CapeB
						{
							OFFSET -26.118187 -8.608795 -7.079266
							CHANNELS 3 Xrotation Yrotation Zrotation
							JOINT newVegas:Right_CapeB1
							{
								OFFSET 0.000000 -8.688499 0.000000
								CHANNELS 3 Xrotation Yrotation Zrotation
								End Site
								{
									OFFSET 0.000000 8.688499 0.000000
								}
							}
						}
					}
				}
				JOINT newVegas:Left_Collar
				{
					OFFSET 18.625099 8.655502 8.828100
					CHANNELS 3 Xrotation Yrotation Zrotation
					JOINT newVegas:Left_Collar1
					{
						OFFSET 14.783401 10.540405 -1.259500
						CHANNELS 3 Xrotation Yrotation Zrotation
						End Site
						{
							OFFSET 0.000000 18.199875 0.000000
						}
					}
				}
				JOINT newVegas:Collar_Back
				{
					OFFSET 0.000000 15.630707 -20.132601
					CHANNELS 3 Xrotation Yrotation Zrotation
					End Site
					{
						OFFSET 0.000000 22.523010 0.000000
					}
				}
				JOINT newVegas:Left_Peck
				{
					OFFSET 17.239599 -5.132599 25.482599
					CHANNELS 3 Xrotation Yrotation Zrotation
					End Site
					{
						OFFSET 0.000000 22.523010 0.000000
					}
				}
				JOINT newVegas:Right_Peck
				{
					OFFSET -17.239599 -5.132202 25.482599
					CHANNELS 3 Xrotation Yrotation Zrotation
					End Site
					{
						OFFSET 0.000000 22.523010 0.000000
					}
				}
				JOINT newVegas:Right_Collar
				{
					OFFSET -18.625099 8.655792 8.828100
					CHANNELS 3 Xrotation Yrotation Zrotation
					JOINT newVegas:Right_Collar1
					{
						OFFSET -14.783401 10.539993 -1.259500
						CHANNELS 3 Xrotation Yrotation Zrotation
						End Site
						{
							OFFSET 0.000000 18.199631 0.000000
						}
					}
				}
			}
		}
		JOINT newVegas:Belly
		{
			OFFSET 0.000000 -6.540398 9.014299
			CHANNELS 3 Xrotation Yrotation Zrotation
			End Site
			{
				OFFSET 0.000000 11.566666 0.000000
			}
		}
	}
	JOINT newVegas:ElvisFacialAnim_Joint
	{
		OFFSET 1.000000 -95.330101 -8.825800
		CHANNELS 3 Xrotation Yrotation Zrotation
		End Site
		{
			OFFSET 0.000000 35.315800 0.000000
		}
	}
}
MOTION
Frames: 4
Frame Time: 0.033333
0.299329 93.813751 2.954377 -0.283750 0.011235 -2.531106 -0.000000 0.000000 -0.000000 -20.160143 11.175576 14.422300 28.550853 11.011480 0.703982 -6.787914 3.469155 -9.496903 -0.000000 -0.000000 -0.000000 -0.000000 -0.000001 -0.000000 -3.755503 -4.150132 2.750353 16.734769 -2.909419 3.698103 -12.555478 0.063033 -3.489124 0.000000 -0.000001 -0.000000 0.000000 0.000000 -0.000001 0.560555 -1.397388 0.525505 0.885191 -0.164263 2.642427 0.868052 0.312701 2.544614 0.247968 -0.072884 0.035080 0.247924 -0.072882 0.035079 0.000000 -0.000000 0.000000 0.247915 -0.072889 0.035082 0.247977 -0.072881 0.035079 0.000000 -0.000000 0.000000 0.000000 -0.000000 0.000000 0.000027 0.000019 -0.312834 3.284038 -25.852176 -73.291748 2.210882 -20.457885 0.701176 -31.890194 -2.756875 2.767035 15.772713 2.736721 17.226080 -2.103364 31.049261 -7.355506 0.000002 -0.000002 -0.000003 2.377501 3.654650 -8.471515 -2.154258 2.456757 -18.676778 -0.000001 -0.000001 -0.000001 -1.973133 5.700555 -13.648107 0.262653 5.095106 -26.987872 -0.000001 0.000000 0.000001 -3.264441 8.554526 -11.754525 4.032614 4.051340 -33.265111 0.000000 -0.000001 0.000002 -6.474261 11.338918 -23.246556 10.714802 2.545203 -34.824720 0.000002 -0.000005 -0.000005 0.000001 0.000003 -0.000001 0.000001 0.000003 -0.000001 -0.000000 0.000003 -0.000001 -0.000002 0.000000 0.000001 -0.000002 0.000000 0.000001 -0.000002 0.000000 0.000001 -0.000002 -0.000001 0.000000 0.000587 0.000044 0.310236 5.327987 -3.221399 75.188785 -0.286947 18.990001 0.143883 -7.879918 -10.226580 5.197432 15.779427 -2.736900 -17.219479 -2.093936 -31.049722 7.366547 0.000002 -0.000003 -0.000003 2.375476 -3.652215 8.489292 -2.146070 -2.458806 18.674912 -0.000000 0.000001 -0.000001 -1.974121 -5.698777 13.665976 0.267669 -5.082223 26.989685 0.000002 -0.000000 0.000002 -4.980457 -10.115199 10.784947 4.033003 -4.039211 33.264643 -0.000002 0.000001 -0.000002 -6.469200 -11.333334 23.255437 10.714922 -2.544847 34.823877 -0.000001 0.000000 -0.000006 0.000000 -0.000000 -0.000000 -0.000000 -0.000001 -0.000000 0.000000 -0.000000 -0.000000 -0.000000 0.000001 -0.000001 -0.000000 0.000000 -0.000001 -0.000000 0.000001 -0.000001 -0.000000 -0.000000 -0.000001 -0.000000 0.000000 0.000000 -0.000000 0.000000 0.000000 -0.000000 0.000000 0.000000 -0.000000 0.000000 0.000000 -0.000000 0.000000 0.000000 -0.000000 0.000000 0.000000 -0.000000 0.000000 0.000000 -0.000000 0.000000 -0.000000 -0.000000 0.000000 -0.000000 
0.278803 93.857712 2.963663 -0.353716 -0.259856 -2.534876 -0.000000 0.000000 0.000000 -19.953551 11.168587 14.470015 28.450139 11.113986 0.597685 -6.721003 3.504087 -9.478474 -0.000000 0.000002 -0.000000 -0.000000 -0.000002 -0.000000 -3.671453 -3.624369 2.831764 16.505051 -2.998054 3.686832 -12.372990 -0.117469 -3.508404 0.000000 -0.000001 -0.000000 -0.000000 0.000000 -0.000000 0.738246 -1.389183 0.479621 0.914702 -0.201168 2.648894 0.898531 0.274057 2.551132 0.235062 -0.044148 0.012412 0.235063 -0.044149 0.012413 -0.000000 -0.000000 -0.000000 0.235066 -0.044149 0.012412 0.235065 -0.044148 0.012413 -0.000000 0.000000 -0.000000 -0.000000 -0.000000 -0.000000 0.826109 -0.573449 -0.731357 4.386085 -19.424679 -71.934746 4.827086 -21.710923 1.770168 -28.038662 -3.885279 3.706111 15.853755 2.558719 17.159384 -2.152221 30.989132 -7.276981 -0.000000 -0.000001 -0.000004 2.370566 3.651466 -8.483340 -2.122651 2.455891 -18.714939 -0.000000 -0.000001 0.000001 -1.945284 5.680878 -13.773155 0.240734 5.067858 -26.845159 0.000001 0.000001 0.000001 -3.344172 8.604911 -11.765770 3.926677 4.087878 -33.215555 0.000000 -0.000004 -0.000001 -6.569857 11.370338 -23.112412 10.607194 2.595720 -34.782093 0.000000 -0.000003 -0.000006 -0.000001 0.000001 -0.000003 -0.000001 0.000001 -0.000003 -0.000001 0.000002 -0.000003 0.000001 0.000000 0.000002 0.000001 0.000000 0.000002 0.000001 0.000000 0.000002 0.000002 -0.000000 0.000001 0.053689 0.217874 0.411956 5.310700 -4.196703 75.238584 0.217782 18.968998 -0.069201 -8.209838 -10.000615 4.753248 15.805527 -2.811214 -17.214435 -2.104186 -31.006668 7.380336 0.000000 0.000000 -0.000000 2.447841 -3.508746 8.750059 -2.146077 -2.459378 18.703672 -0.000001 0.000001 -0.000000 -1.915805 -5.853494 13.496916 0.263959 -5.081554 26.866763 -0.000000 -0.000001 0.000004 -4.901552 -10.258210 10.603794 4.023705 -4.048402 33.132875 -0.000000 0.000001 0.000002 -6.386736 -11.473115 23.083167 10.713842 -2.569701 34.691487 -0.000001 0.000001 0.000003 -0.000000 0.000000 -0.000000 0.000000 -0.000000 -0.000000 -0.000000 -0.000000 -0.000000 -0.000000 0.000000 -0.000001 -0.000000 0.000000 -0.000001 -0.000000 0.000000 -0.000001 -0.000000 -0.000000 -0.000001 0.000000 0.000000 0.000000 0.000000 0.000000 0.000000 0.000000 0.000000 0.000000 0.000000 0.000000 0.000000 0.000000 0.000000 0.000000 0.000000 0.000000 0.000000 0.000000 0.000000 0.000000 0.000000 0.000000 0.000000 -0.000000 0.000000 0.000000 
0.247610 93.896072 3.039534 -0.423675 -0.509673 -2.538520 -0.000000 -0.000000 -0.000000 -21.375311 10.542563 14.842358 30.068631 10.458422 0.363015 -5.541236 3.172573 -9.314172 0.000000 -0.000000 0.000000 -0.000000 0.000001 -0.000000 -3.502995 -3.064419 2.925750 16.239987 -3.184282 3.663935 -12.239179 -0.253594 -3.504782 -0.000000 -0.000001 0.000000 0.000000 -0.000000 -0.000001 0.778645 -1.386755 0.415797 0.933232 -0.229348 2.653809 0.917825 0.242709 2.556431 0.220902 -0.018328 -0.004344 0.220901 -0.018328 -0.004346 -0.000000 0.000000 -0.000000 0.220903 -0.018328 -0.004345 0.220969 -0.018327 -0.004346 0.000000 0.000000 0.000000 -0.000000 0.000000 -0.000000 1.732160 -1.457571 -1.175091 5.795231 -13.446992 -69.974926 11.713500 -22.519200 4.100247 -23.549372 -5.433747 5.321675 16.082100 2.053834 16.974395 -2.289828 30.819074 -7.055576 0.000001 -0.000000 -0.000001 2.344167 3.639202 -8.516386 -2.030006 2.463352 -18.822311 0.000001 -0.000002 -0.000000 -1.867140 5.624765 -14.126669 0.183202 4.988675 -26.442461 -0.000001 -0.000000 -0.000001 -3.569384 8.747644 -11.797038 3.626857 4.190263 -33.075577 -0.000001 -0.000001 0.000000 -6.841469 11.455863 -22.733120 10.302621 2.737686 -34.661499 0.000003 -0.000002 -0.000000 -0.000001 -0.000001 -0.000000 -0.000001 -0.000001 -0.000000 -0.000002 -0.000001 0.000000 0.000000 -0.000001 0.000002 0.000000 -0.000001 0.000002 0.000000 -0.000001 0.000002 0.000001 -0.000001 0.000002 0.139429 0.264357 0.554231 5.289010 -5.127213 75.207657 0.826844 18.938217 -0.298859 -8.636168 -9.860608 4.347612 15.818069 -2.869380 -17.221214 -2.117275 -30.951801 7.397966 0.000000 -0.000005 -0.000003 2.505206 -3.373989 8.931621 -2.146026 -2.461028 18.785971 -0.000001 0.000001 0.000001 -1.844719 -6.046842 13.233636 0.248004 -5.081116 26.687882 0.000000 -0.000000 0.000001 -4.771737 -10.429870 10.335841 4.010314 -4.061567 32.943853 -0.000000 -0.000001 -0.000001 -6.262413 -11.643458 22.841046 10.704963 -2.605238 34.502899 0.000000 0.000001 0.000003 0.000000 0.000000 0.000001 0.000001 -0.000000 0.000001 0.000000 -0.000000 0.000001 -0.000000 0.000000 -0.000002 -0.000000 0.000000 -0.000001 -0.000000 0.000000 -0.000002 -0.000000 -0.000000 -0.000001 0.000000 0.000000 0.000000 0.000000 0.000000 0.000000 0.000000 0.000000 0.000000 0.000000 0.000000 0.000000 0.000000 0.000000 0.000000 0.000000 0.000000 0.000000 0.000000 0.000000 0.000000 0.000000 0.000000 -0.000000 -0.000000 -0.000000 -0.000000 
0.243848 93.885101 3.178716 -0.493124 -0.758373 -2.562804 0.000000 0.000000 -0.000000 -24.514876 9.021464 15.211953 32.876955 8.508418 -0.067323 -2.871000 1.998335 -8.652276 0.000000 0.000002 -0.000000 0.000001 0.000000 -0.000000 -3.406950 -2.483513 2.997385 16.242052 -3.421381 3.664891 -12.295894 -0.349257 -3.461640 -0.000000 -0.000000 -0.000000 0.000001 0.000000 -0.000001 0.855404 -1.405031 0.364157 0.939139 -0.269045 2.660515 0.924933 0.199235 2.563728 0.212984 0.013286 -0.020137 0.213024 0.013286 -0.020139 -0.000000 -0.000000 -0.000000 0.213034 0.013287 -0.020138 0.213109 0.013282 -0.020138 0.000000 -0.000000 -0.000000 -0.000000 -0.000000 0.000000 2.703248 -2.510878 -1.624213 7.424616 -8.114765 -67.309841 18.286858 -23.197119 5.238027 -18.535047 -5.858286 7.357539 16.435211 1.263708 16.697229 -2.502306 30.554544 -6.713020 0.000000 -0.000002 -0.000005 2.303180 3.620260 -8.567668 -1.885902 2.474208 -18.989312 -0.000001 0.000001 0.000000 -1.747179 5.536103 -14.675512 0.096004 4.864519 -25.816935 0.000001 0.000001 0.000003 -3.918966 8.970163 -11.843714 3.160069 4.346695 -32.857708 -0.000003 0.000001 0.000005 -7.266280 11.582619 -22.142818 9.828265 2.955899 -34.473051 -0.000003 -0.000003 -0.000001 0.000003 -0.000000 0.000002 0.000003 -0.000000 0.000002 0.000002 -0.000000 0.000002 -0.000001 0.000000 -0.000001 -0.000001 0.000000 -0.000001 -0.000001 0.000000 -0.000001 -0.000001 -0.000001 -0.000001 0.221154 0.326353 0.659128 5.311362 -6.061708 75.160631 1.384475 18.963600 -0.496995 -9.108892 -9.785516 3.892468 15.809303 -2.898583 -17.231044 -2.117134 -30.952341 7.397754 -0.000000 0.000000 -0.000000 2.417474 -3.260731 8.989401 -2.140633 -2.466118 18.946955 0.000000 0.000001 0.000001 -1.757253 -6.310079 12.973979 0.234595 -5.080743 26.537843 -0.000001 0.000001 -0.000004 -4.627848 -10.668850 10.078337 3.999846 -4.071825 32.796038 0.000002 0.000002 -0.000000 -6.107272 -11.886300 22.627008 10.698574 -2.632486 34.358249 -0.000003 -0.000000 -0.000002 -0.000000 0.000001 -0.000001 -0.000000 0.000000 -0.000001 -0.000000 0.000000 -0.000001 -0.000001 -0.000001 -0.000001 -0.000001 0.000000 -0.000001 -0.000001 -0.000001 -0.000001 -0.000001 -0.000000 -0.000001 0.000000 -0.000000 0.000000 0.000000 -0.000000 0.000000 0.000000 -0.000000 0.000000 0.000000 -0.000000 0.000000 0.000000 -0.000000 0.000000 0.000000 -0.000000 0.000000 0.000000 -0.000000 0.000000 -0.000000 0.000000 0.000000 0.000000 0.000000 -0.000000 
